<svg height="328.942434" viewBox="0 0 754.66 815.83" width="304.00456" xmlns="http://www.w3.org/2000/svg"><g fill="#c22033"><path d="m140.8 0h-33.07-13.2l11.2 22.88-8.17 93.34h103.69l2.46-28.07h-70.62z"/><path d="m470.03 84.75h-1.25l-12.61-84.75h-40.94l-25.81 84.57h-1.25l-10.48-84.57h-33.61l20.4 116.22h42.19l25.66-80.82h1.25l12.78 80.82h42.37l40.38-116.22h-33.08z"/><path d="m693.14 0h-69.01c-13.77 0-22.31 5.72-23.53 19.67l-1.77 20.2c-1.1 12.51 1.62 18.24 12.47 20.92l65.79 16.27-1.14 13.05h-48.81l1.38-15.73h-32.71l-1.69 19.31c-1.39 15.91 9.47 22.53 22.16 22.53h64.89c15.91 0 25.78-8.58 27.08-23.42l1.42-16.27c1.3-14.84-.93-20.03-12.66-22.89l-65.27-16.09 1.02-11.62h48.81l-1.2 13.76h32.54l1.25-14.3c1.38-15.73-1.71-25.39-21.02-25.39z"/><path d="m230.2 0h-13.11l11.12 22.71-8.18 93.51h101.9l2.27-25.93h-68.83l1.75-20.02h50.95l2.25-25.75h-50.94l1.62-18.59h68.83l2.27-25.93h-68.74z"/><path d="m584.28 0h-33.07-13.2l11.19 22.88-8.16 93.34h33.07l6.31-72.15z"/></g><path d="m319.52 800.6c-59.2-54.9-108.02-120.72-145.32-195.83s-12.06 2.39-12.06 2.39c.48.96.95 1.95 1.43 2.89 37.95 76.42 87.7 143.46 147.88 199.26l7.02 6.51 7.85-5.49c38.71-27.04 76.48-57.27 112.61-90.14 0 0 1.24-1.22 3.44-3.39l-11.76-5.08c-35.32 32.13-72.4 61.85-111.09 88.88z" fill="#fff"/><path d="m728 181.07c-11.42-9.88-26.12-16.11-42.53-18.01-349.69-40.64-635.64-4.66-638.49-4.29l-22.36 2.89 50.52 56.5c.21 41.3 3.38 103.76 16.7 174.39 4.07 21.56 9.18 43.9 15.18 66.35l2.5 9.5c.38 1.45 7.15 26.8 19.87 61.7l-7.57 6.27-121.82 102.94 146.71-65.53 10.85-4.84 10.85-4.84 128.05-57.19s-.36.57-.87 1.58c-.6 1.19-1.41 3.01-2.1 5.23-1.65 5.3-2.58 12.91 1.77 20.1l73.96 81.93-71.44 60.55 154.77-59.89-44.69 38.97 33.23 29.12 8.95 7.84 8.95 7.84 53.6 46.97h-.02s3.75 3.23 3.75 3.23c14.75 12.92 40.24 16.37 56.81 5.87l68.7-43.53c3.92-2.49 4.87-7.8 2.04-11.48l-.58-.75-20.19-26.31-55.3-72.06-2.68-3.49h.08s-1.12-1.49-1.12-1.49l-4.08-5.34c.62-.73 1.27-1.47 1.88-2.19 48.27-59.76 91.61-124.9 128.79-193.6 22.24-41.08 44.68-84.41 58.19-122.94 12.46-35.55 4.67-69.94-20.83-91.99zm-606.99 284.29-2.5-9.49c-5.72-21.41-10.79-43.22-14.99-65.52-12.82-67.98-16.51-131.2-16.51-176.74l-38.5-43.06s.27-.04.77-.1c.06 0 .15-.02.22-.03.17-.02.35-.04.56-.07.17-.02.35-.04.55-.07.25-.03.51-.06.8-.1.23-.03.47-.06.72-.09.22-.03.46-.05.7-.08.34-.04.67-.08 1.05-.12.29-.03.61-.07.92-.11.4-.05.79-.09 1.23-.14.25-.03.53-.06.79-.09.8-.09 1.65-.19 2.57-.29.56-.06 1.1-.12 1.7-.19.43-.05.89-.1 1.34-.15.55-.06 1.1-.12 1.68-.18.61-.07 1.25-.13 1.89-.2.49-.05.98-.1 1.48-.16.68-.07 1.38-.14 2.09-.22.49-.05.99-.1 1.5-.15.79-.08 1.59-.16 2.42-.24.55-.06 1.13-.11 1.7-.17.81-.08 1.61-.16 2.45-.24.61-.06 1.25-.12 1.88-.18.88-.08 1.74-.17 2.65-.26.39-.04.81-.08 1.2-.11 2.14-.2 4.37-.41 6.69-.62.56-.05 1.1-.1 1.66-.15 1.06-.1 2.15-.19 3.25-.29.69-.06 1.37-.12 2.08-.19 1.12-.1 2.27-.2 3.43-.3.77-.07 1.54-.13 2.32-.2 1.09-.09 2.2-.19 3.33-.28.92-.08 1.85-.15 2.78-.23 1.13-.09 2.27-.19 3.43-.28.88-.07 1.78-.14 2.68-.21 1.25-.1 2.5-.2 3.79-.3.96-.07 1.94-.15 2.92-.22 1.24-.09 2.45-.19 3.72-.28 1.1-.08 2.25-.17 3.37-.25 2.31-.17 4.67-.34 7.08-.51 1.13-.08 2.24-.16 3.39-.24 1.35-.09 2.74-.19 4.12-.28 1.11-.08 2.22-.15 3.35-.23 1.4-.09 2.82-.19 4.25-.28 1.19-.08 2.37-.15 3.58-.23 1.05-.07 2.12-.13 3.19-.2l1.93 6.67.89 3.08s.59 2.04.59 2.04l35.26 121.71-56.82 40.34 105.76-36.44-37.78 34.64 17.03 58.82-93.31 66.11-10.35 7.33zm621.57-219.74c-.15 2.17-.41 4.36-.74 6.58-.48 3.19-1.16 6.44-2.04 9.73-.63 2.38-1.34 4.78-2.19 7.2-12.87 36.71-33.98 77.9-57.43 121.22-37.03 68.4-79.91 132.77-127.59 191.79s-7.4-9.78-7.4-9.78l-75.81-100.06c-7.72-8.56-17.17-13.48-26.34-16.2-6.9-2.04-13.61-2.91-19.25-3.14-8.91-.37-15.14.71-15.14.71l171.34-104.09c30.86-19.97 50.3-40.81 61.19-59.42 8.66-17.25 10.71-33.95 4.57-43.66-2.57-3.73-6.41-6.27-10.78-8.04-9.95-4.03-22.71-3.9-30.35-3.3-3.99.31-6.6.73-6.6.73.54.81 1.02 1.63 1.53 2.45 1.18 1.93 2.28 3.87 3.27 5.79 4.6 8.9 6.05 19.39 5.07 29.32-.48 4.86-1.49 9.59-3.12 13.92-2.05 5.47-5.86 10.12-10.46 13.72-1.14.89-2.32 1.73-3.58 2.47l-21.31 12.51c3.29-6.07 5.51-12.31 6.93-18.52 3.48-15.29 1.53-30.27-4.37-41.88-.43-.85-.79-1.76-1.26-2.57-1-1.7-2.05-3.34-3.22-4.86-2.7-3.5-6.27-6.5-10.29-8.93-11.08-6.7-24.66-7.73-37.14-4.26-10.96 3.05-21.9 6.73-32.56 11.04-30.4 12.3-78.63 37.28-131.01 66.49l-101.33-128.23-10.38-13.13-.33-.42-1.37-1.74-9.25-11.7c1.13-.04 2.25-.08 3.39-.12 1.39-.05 2.8-.09 4.2-.14 2.5-.08 5.01-.16 7.55-.24 1.49-.05 2.97-.09 4.48-.13 2.61-.07 5.25-.15 7.9-.21 1.43-.04 2.86-.08 4.3-.11 2.9-.07 5.84-.14 8.79-.2 1.22-.03 2.42-.05 3.65-.08 3.74-.08 7.51-.15 11.32-.21.48 0 .95-.02 1.44-.03 4.34-.07 8.72-.13 13.15-.19.91-.01 1.84-.02 2.76-.03 3.45-.04 6.92-.07 10.42-.1 1.52-.01 3.05-.02 4.58-.03 2.96-.02 5.92-.04 8.91-.05 1.72 0 3.45 0 5.18-.01h8.57c1.85 0 3.71 0 5.58.01 2.81 0 5.64.02 8.48.04 1.89.01 3.78.02 5.68.03 2.91.02 5.85.05 8.79.08 1.86.02 3.71.04 5.58.06 3.22.04 6.46.08 9.71.13 1.6.02 3.19.05 4.81.07 4.23.07 8.49.15 12.77.24.68.01 1.34.02 2.02.04 4.95.11 9.93.23 14.95.36 1.49.04 2.99.08 4.48.13 3.55.1 7.1.2 10.69.31 1.92.06 3.85.13 5.77.19 3.19.11 6.39.21 9.6.33 2.1.08 4.21.16 6.32.24 3.09.12 6.19.24 9.31.37 2.17.09 4.35.18 6.53.28 3.12.14 6.26.28 9.4.42 2.18.1 4.37.2 6.56.31 3.2.15 6.42.32 9.64.49 2.14.11 4.28.22 6.44.34 3.5.19 7.03.39 10.56.59 1.89.11 3.76.21 5.65.33 4.88.29 9.78.6 14.71.91.55.04 1.1.07 1.66.1 5.47.36 10.97.73 16.49 1.12 1.77.12 3.55.26 5.32.39 3.79.27 7.58.55 11.39.84 2.15.16 4.31.34 6.46.51 3.47.27 6.94.55 10.43.84 2.31.19 4.62.39 6.93.58 3.35.28 6.71.57 10.09.87 2.42.21 4.85.43 7.29.65 3.31.3 6.64.61 9.97.92 2.43.23 4.86.46 7.3.7 3.46.34 6.93.68 10.41 1.03 2.31.23 4.62.46 6.95.7 3.86.4 7.74.81 11.62 1.23 1.94.21 3.87.41 5.82.62 5.72.63 11.45 1.27 17.21 1.94.12.01.25.03.37.04 3.09.36 6.16.92 9.18 1.66.21.05.42.09.63.14.9.23 1.78.51 2.66.77.7.21 1.42.39 2.12.61.27.09.53.2.8.29 1.89.65 3.76 1.38 5.58 2.18 1.82.81 3.61 1.7 5.35 2.67 1.17.65 2.28 1.4 3.4 2.13.55.36 1.13.67 1.67 1.05.2.14.37.3.57.44 1.43 1.02 2.84 2.09 4.18 3.24 1.1.96 2.15 1.96 3.18 2.97.17.17.36.32.53.49 3.5 3.53 6.55 7.42 9.13 11.62.86 1.4 1.67 2.84 2.42 4.3.06.11.12.21.18.32.12.24.22.49.34.73 1.68 3.44 3.05 7.06 4.11 10.82 1.15 4.05 1.95 8.26 2.34 12.64.18 2 .29 4.02.3 6.08 0 1.84-.05 3.71-.18 5.59z" fill="#fff"/><path d="m207.64 333.1 37.78-34.64-105.76 36.44 56.82-40.34-35.26-121.71-.59-2.03s-.89-3.1-.89-3.1l-1.93-6.67c-1.07.07-2.13.13-3.19.2-1.2.08-2.39.15-3.58.23-1.43.09-2.85.18-4.25.28-1.13.08-2.24.15-3.35.23-1.38.09-2.77.19-4.12.28-1.15.08-2.26.16-3.39.24-2.4.17-4.76.34-7.08.51-1.12.08-2.27.17-3.37.25-1.26.09-2.48.19-3.72.28-.97.07-1.96.15-2.92.22-1.29.1-2.54.2-3.79.3-.9.07-1.8.14-2.68.21-1.16.09-2.3.19-3.43.28-.94.08-1.87.15-2.78.23-1.12.09-2.23.19-3.33.28-.78.07-1.55.13-2.32.2-1.16.1-2.31.2-3.43.3-.71.06-1.39.12-2.08.19-1.09.1-2.19.19-3.25.29-.57.05-1.11.1-1.66.15-2.32.21-4.56.42-6.69.62-.4.04-.81.08-1.2.11-.91.09-1.77.17-2.65.26-.63.06-1.27.12-1.88.18-.84.08-1.65.16-2.45.24-.57.06-1.15.11-1.7.17-.83.08-1.63.17-2.42.24-.51.05-1.01.1-1.5.15-.72.07-1.42.15-2.09.22-.51.05-1 .1-1.48.16-.64.07-1.28.14-1.89.2-.58.06-1.13.12-1.68.18-.45.05-.92.1-1.34.15-.6.06-1.14.13-1.7.19-.91.1-1.77.2-2.57.29-.26.03-.55.06-.79.09-.44.05-.83.1-1.23.14-.31.04-.63.07-.92.11-.38.04-.71.08-1.05.12-.24.03-.48.06-.7.08-.26.03-.49.06-.72.09-.29.03-.55.07-.8.1-.2.02-.37.05-.55.07-.22.03-.39.05-.56.07-.07 0-.16.02-.22.03-.5.06-.77.1-.77.1l38.5 43.06c0 45.54 3.68 108.76 16.51 176.74 4.21 22.3 9.27 44.12 14.99 65.52l2.5 9.49 10.35-7.33 93.31-66.11-17.03-58.82z" fill="#000810"/><path d="m450.02 692.34-8.95-7.84-33.23-29.12 44.69-38.97-154.77 59.89 71.44-60.55-73.96-81.93c-4.35-7.19-3.43-14.8-1.77-20.1.69-2.21 1.5-4.04 2.1-5.23.51-1.01.87-1.58.87-1.58l-128.05 57.19-10.85 4.84-10.85 4.84-146.69 65.53 162.13-32.14 12.06-2.39s0 0 0 0c37.3 75.11 86.12 140.93 145.32 195.83 38.69-27.04 75.77-56.75 111.09-88.88l11.76 5.08 70.19 30.34-53.6-46.97-8.95-7.84z" fill="#000810"/><path d="m740.11 221.31c-1.07-3.76-2.43-7.38-4.11-10.82-.12-.24-.21-.5-.34-.73-.05-.11-.12-.21-.18-.32-.75-1.47-1.56-2.9-2.42-4.3-2.58-4.2-5.63-8.09-9.13-11.62-.17-.17-.36-.32-.53-.49-1.03-1.02-2.08-2.02-3.18-2.97-1.34-1.16-2.75-2.22-4.18-3.24-.19-.14-.37-.3-.57-.44-.54-.38-1.12-.69-1.67-1.05-1.12-.73-2.23-1.48-3.4-2.13-1.74-.97-3.53-1.86-5.35-2.67-1.83-.81-3.69-1.54-5.58-2.18-.27-.09-.53-.21-.8-.29-.7-.23-1.41-.41-2.12-.61-.89-.26-1.77-.55-2.66-.77-.21-.05-.42-.09-.63-.14-3.02-.74-6.09-1.3-9.18-1.66-.12-.01-.25-.03-.37-.04-5.76-.67-11.49-1.31-17.21-1.94-1.94-.21-3.88-.41-5.82-.62-3.88-.42-7.76-.83-11.62-1.23-2.32-.24-4.63-.47-6.95-.7-3.48-.35-6.95-.7-10.41-1.03-2.44-.24-4.87-.47-7.3-.7-3.33-.31-6.65-.62-9.97-.92-2.43-.22-4.86-.44-7.29-.65-3.37-.3-6.73-.59-10.09-.87-2.31-.2-4.63-.39-6.93-.58-3.49-.29-6.96-.56-10.43-.84-2.15-.17-4.31-.34-6.46-.51-3.81-.29-7.61-.57-11.39-.84-1.77-.13-3.55-.26-5.32-.39-5.52-.39-11.02-.77-16.49-1.12-.55-.04-1.1-.07-1.66-.1-4.92-.32-9.83-.62-14.71-.91-1.89-.11-3.77-.22-5.65-.33-3.53-.2-7.06-.4-10.56-.59-2.16-.12-4.29-.23-6.44-.34-3.22-.17-6.44-.33-9.64-.49-2.19-.11-4.38-.21-6.56-.31-3.15-.15-6.28-.29-9.4-.42-2.18-.1-4.36-.19-6.53-.28-3.11-.13-6.21-.25-9.31-.37-2.11-.08-4.22-.16-6.32-.24-3.22-.12-6.41-.22-9.6-.33-1.92-.06-3.86-.13-5.77-.19-3.58-.11-7.14-.21-10.69-.31-1.49-.04-3-.09-4.48-.13-5.02-.13-10-.25-14.95-.36-.68-.01-1.34-.02-2.02-.04-4.28-.09-8.54-.17-12.77-.24-1.61-.03-3.2-.05-4.81-.07-3.25-.05-6.49-.1-9.71-.13-1.87-.02-3.72-.04-5.58-.06-2.94-.03-5.87-.06-8.79-.08-1.9-.01-3.79-.02-5.68-.03-2.84-.02-5.67-.03-8.48-.04-1.86 0-3.72 0-5.58-.01-2.87 0-5.73 0-8.57 0-1.73 0-3.46 0-5.18.01-2.99.01-5.96.03-8.91.05-1.52.01-3.06.02-4.58.03-3.5.03-6.97.06-10.42.1-.92.01-1.85.02-2.76.03-4.43.05-8.81.12-13.15.19-.48 0-.95.02-1.44.03-3.81.06-7.59.13-11.32.21-1.23.03-2.43.05-3.65.08-2.95.06-5.88.13-8.79.2-1.44.04-2.87.07-4.3.11-2.65.07-5.29.14-7.9.21-1.5.04-2.99.09-4.48.13-2.54.08-5.05.16-7.55.24-1.4.05-2.81.09-4.2.14-1.14.04-2.26.08-3.39.12l9.25 11.7 1.37 1.74.33.42 10.38 13.13 101.33 128.23c52.39-29.2 100.61-54.18 131.01-66.49 10.66-4.32 21.6-8 32.56-11.04 12.48-3.47 26.05-2.44 37.14 4.26 4.02 2.43 7.59 5.44 10.29 8.93 1.17 1.51 2.23 3.16 3.22 4.86.47.81.83 1.72 1.26 2.57 5.91 11.6 7.85 26.59 4.37 41.88-1.41 6.21-3.63 12.45-6.93 18.52l21.31-12.51c1.26-.74 2.44-1.58 3.58-2.47 4.6-3.6 8.41-8.25 10.46-13.72 1.62-4.32 2.64-9.06 3.12-13.92.99-9.93-.47-20.43-5.07-29.32-.99-1.92-2.1-3.86-3.27-5.79-.5-.82-.98-1.65-1.53-2.45 0 0 2.62-.42 6.6-.73 7.64-.6 20.4-.74 30.35 3.3 4.37 1.77 8.22 4.32 10.78 8.04 6.14 9.71 4.09 26.41-4.57 43.66-10.89 18.61-30.33 39.45-61.19 59.42l-171.34 104.09s6.23-1.08 15.14-.71c5.64.23 12.35 1.1 19.25 3.14 9.18 2.71 18.62 7.63 26.34 16.2l75.81 100.06 7.4 9.77s0 0 0 0c47.68-59.02 90.56-123.39 127.59-191.79 23.44-43.32 44.56-84.51 57.43-121.22.85-2.42 1.55-4.82 2.19-7.2.88-3.29 1.56-6.54 2.04-9.73.33-2.22.6-4.42.74-6.58.13-1.89.19-3.75.18-5.59-.01-2.06-.13-4.08-.3-6.08-.39-4.38-1.19-8.59-2.34-12.64z" fill="#c22033"/><path d="m553.21 342.4c-3.92.95-21.31 4.88-39.39 4.41-11.61-.3-23.46-2.4-32.11-8.34l-128.37 81.16-193.92 122.61-10.23 6.47-6.38 4.03 6.63-3.4 10.62-5.44 205.14-105.02 188.89-96.7s-.37.09-.9.22z" fill="#231f20" opacity=".4"/></svg>